<svg xmlns="http://www.w3.org/2000/svg" width="192" height="45" fill="none">
  <g fill="#1D996E" clip-path="url(#a)">
    <path d="M14.03 1.08c.3-.32.72-.44 1.14-.35 2.04.45 8.45 2.01 15.32 5.2a72.06 72.06 0 0 1 13.35 8.12c.38.3.55.77.45 1.24a73.75 73.75 0 0 1-5.2 15.21 67.96 67.96 0 0 1-8.14 13.38c-.3.37-.77.53-1.23.43a74.22 74.22 0 0 1-15.23-5 70.24 70.24 0 0 1-13.35-8.29c-.38-.3-.56-.79-.45-1.26.5-2.26 2.22-9.2 5.63-16.49 3.3-7.07 6.53-10.91 7.71-12.19Z" opacity=".2"/>
    <path d="M11.94 29.01V14.47h3.95v11.36h5.88v3.18h-9.83Zm24.95-7.27c0 1.62-.32 2.98-.95 4.1a6.34 6.34 0 0 1-2.55 2.52 7.51 7.51 0 0 1-3.58.85 7.5 7.5 0 0 1-3.59-.86 6.4 6.4 0 0 1-2.54-2.53 8.23 8.23 0 0 1-.94-4.08c0-1.62.31-2.98.94-4.1a6.3 6.3 0 0 1 2.54-2.51 7.5 7.5 0 0 1 3.6-.86c1.31 0 2.5.28 3.57.86a6.28 6.28 0 0 1 2.55 2.52c.63 1.1.95 2.47.95 4.09Zm-4.06 0c0-.87-.12-1.6-.35-2.2a2.78 2.78 0 0 0-1.02-1.37 2.8 2.8 0 0 0-1.65-.47c-.65 0-1.2.16-1.65.47-.45.31-.78.77-1.02 1.37-.22.6-.34 1.33-.34 2.2 0 .87.12 1.6.34 2.2.24.6.57 1.06 1.02 1.37.45.3 1 .46 1.65.46.66 0 1.2-.15 1.65-.46.45-.31.79-.77 1.02-1.36.23-.6.35-1.34.35-2.21Zm15.33-2.47a1.95 1.95 0 0 0-1.47-1.46c-.25-.07-.54-.1-.84-.1-.67 0-1.23.15-1.7.47-.47.32-.82.77-1.07 1.37-.24.6-.36 1.32-.36 2.16 0 .85.12 1.58.35 2.19.23.6.58 1.07 1.04 1.39a2.9 2.9 0 0 0 1.7.48c.6 0 1.1-.08 1.5-.26.4-.17.7-.42.9-.75.2-.32.3-.7.3-1.13l.69.07h-3.33v-2.81h6.45v2.01c0 1.33-.28 2.46-.84 3.4a5.6 5.6 0 0 1-2.32 2.16c-.98.5-2.1.75-3.37.75-1.42 0-2.66-.3-3.73-.9a6.34 6.34 0 0 1-2.5-2.57 8.29 8.29 0 0 1-.9-3.97c0-1.2.18-2.27.54-3.2a6.7 6.7 0 0 1 3.8-3.8c.86-.34 1.78-.5 2.76-.5.86 0 1.66.12 2.4.37.74.24 1.4.58 1.97 1.03.57.45 1.03.98 1.38 1.59.35.6.57 1.28.64 2h-3.99Zm20.1 2.47c0 1.62-.32 2.98-.95 4.1a6.34 6.34 0 0 1-2.55 2.52 7.51 7.51 0 0 1-3.58.85 7.5 7.5 0 0 1-3.6-.86 6.4 6.4 0 0 1-2.54-2.53 8.23 8.23 0 0 1-.93-4.08c0-1.62.31-2.98.93-4.1a6.3 6.3 0 0 1 2.55-2.51 7.5 7.5 0 0 1 3.6-.86c1.3 0 2.5.28 3.57.86a6.28 6.28 0 0 1 2.55 2.52c.63 1.1.94 2.47.94 4.09Zm-4.07 0c0-.87-.11-1.6-.35-2.2a2.78 2.78 0 0 0-1.01-1.37 2.8 2.8 0 0 0-1.65-.47c-.65 0-1.2.16-1.65.47-.45.31-.79.77-1.02 1.37-.23.6-.34 1.33-.34 2.2 0 .87.11 1.6.34 2.2.23.6.57 1.06 1.02 1.37.45.3 1 .46 1.65.46.65 0 1.2-.15 1.65-.46.45-.31.79-.77 1.01-1.36.24-.6.35-1.34.35-2.21ZM74.07 29V14.47h3.95v11.36h5.88v3.18h-9.83Zm24.95-7.27c0 1.62-.32 2.98-.95 4.1a6.34 6.34 0 0 1-2.55 2.52 7.51 7.51 0 0 1-3.58.85 7.5 7.5 0 0 1-3.6-.86 6.4 6.4 0 0 1-2.53-2.53 8.23 8.23 0 0 1-.94-4.08c0-1.62.31-2.98.94-4.1a6.3 6.3 0 0 1 2.54-2.51 7.5 7.5 0 0 1 3.6-.86c1.3 0 2.5.28 3.57.86a6.28 6.28 0 0 1 2.55 2.52c.63 1.1.95 2.47.95 4.09Zm-4.07 0c0-.87-.11-1.6-.34-2.2a2.78 2.78 0 0 0-1.02-1.37 2.8 2.8 0 0 0-1.65-.47c-.65 0-1.2.16-1.65.47-.45.31-.79.77-1.02 1.37-.22.6-.34 1.33-.34 2.2 0 .87.12 1.6.34 2.2.23.6.57 1.06 1.02 1.37.45.3 1 .46 1.65.46.66 0 1.2-.15 1.65-.46.45-.31.79-.77 1.02-1.36.23-.6.34-1.34.34-2.21Zm18.48-7.27V29h-3.3l-5.25-7.64h-.09v7.64h-3.95V14.47h3.36l5.17 7.61h.11v-7.61h3.95Zm11.31 4.8a1.83 1.83 0 0 0-.79-1.15c-.19-.14-.42-.24-.68-.3-.25-.08-.53-.12-.84-.12-.67 0-1.23.16-1.7.48-.46.32-.82.77-1.06 1.37-.25.6-.37 1.32-.37 2.16 0 .85.12 1.58.35 2.19.23.6.58 1.07 1.04 1.39a2.9 2.9 0 0 0 1.7.48c.61 0 1.11-.08 1.5-.26.41-.17.71-.42.91-.75.2-.32.3-.7.3-1.13l.68.07h-3.32v-2.81h6.45v2.01c0 1.33-.29 2.46-.85 3.4a5.6 5.6 0 0 1-2.32 2.16c-.98.5-2.1.75-3.37.75-1.42 0-2.66-.3-3.73-.9a6.33 6.33 0 0 1-2.5-2.57 8.28 8.28 0 0 1-.9-3.97c0-1.2.18-2.27.55-3.2a6.7 6.7 0 0 1 3.8-3.8c.85-.34 1.77-.5 2.75-.5.86 0 1.66.12 2.4.37.75.24 1.4.58 1.97 1.03.57.45 1.04.98 1.39 1.59.35.6.56 1.28.63 2h-3.99Zm18.6-4.8V29h-3.3l-5.26-7.64h-.09v7.64h-3.94V14.47h3.35l5.17 7.61h.11v-7.61h3.95ZM148.97 29h-4.26l4.8-14.54h5.4l4.8 14.54h-4.26l-3.19-10.54h-.11l-3.18 10.54Zm-.8-5.74h8.01v2.96h-8v-2.96Zm12.94-8.8h4.91l3.38 8.23h.17l3.38-8.23h4.92V29H174v-8.4h-.1l-3.25 8.29h-2.33l-3.24-8.35h-.1V29h-3.87V14.47ZM179.75 29V14.47h10.48v3.18h-6.53v2.5h6v3.18h-6v2.5h6.5v3.18h-10.45Z"/>
  </g>
  <defs>
    <clipPath id="a">
      <path fill="#fff" d="M0 0h192v45H0z"/>
    </clipPath>
  </defs>
</svg>
